<?xml version="1.0" encoding="UTF-8" standalone="no"?>
<svg
   height="24"
   viewBox="0 -960 960 960"
   width="24"
   fill="#ffffff"
   version="1.1"
   id="svg1"
   xml:space="preserve"
   xmlns="http://www.w3.org/2000/svg"
   xmlns:svg="http://www.w3.org/2000/svg"><defs
     id="defs1" /><path
     id="path1-5"
     style="fill:#ffffff;fill-opacity:1;stroke-width:1.05474"
     d="m 151.17188,-879.29688 v 590.70313 H 24.60938 v 126.5625 c 0,35.15813 12.34243,64.998681 36.95312,89.609375 24.61069,24.610691 54.45125,36.953125 89.60938,36.953125 H 657.5 c 35.15813,0 64.99868,-12.342434 89.60938,-36.953125 24.61069,-24.610694 36.95312,-54.451245 36.95312,-89.609375 v -717.26563 z m 84.45312,84.375 h 464.0625 v 632.89063 c 0,11.95377 -4.02301,21.91363 -12.10938,30 -8.08637,8.08637 -18.12436,12.1875 -30.07812,12.1875 -11.95377,0 -21.99176,-4.10113 -30.07812,-12.1875 -8.08638,-8.08637 -12.10938,-18.04623 -12.10938,-30 v -126.5625 H 235.625 Z M 108.98438,-204.21875 H 530.9375 v 84.375 H 151.17188 c -11.95377,0 -21.91364,-4.10113 -30,-12.1875 -8.08638,-8.08637 -12.1875,-18.04623 -12.1875,-30 z" /><path
     d="m 622.0981,-364.12043 -129.50109,-129.5011 q -14.50005,9.99997 -33.75045,16.00016 -19.24999,5.99998 -41.75022,5.99998 -59.0006,0 -100.25112,-41.25033 -41.25033,-41.25031 -41.25033,-100.25092 0,-59.00063 41.25033,-100.25094 41.25052,-41.25033 100.25112,-41.25033 59.00063,0 100.25094,41.25033 41.25033,41.25031 41.25033,100.25094 0,23.00032 -5.99999,41.75041 -6.00019,18.75009 -16.00035,32.75024 l 130.0014,130.5013 z M 417.09634,-534.622 q 33.00029,0 55.75037,-22.75028 22.75029,-22.75008 22.75029,-55.75038 0,-33.00029 -22.75029,-55.75057 -22.75008,-22.75008 -55.75037,-22.75008 -33.00029,0 -55.75056,22.75008 -22.75008,22.75028 -22.75008,55.75057 0,33.0003 22.75008,55.75038 22.75027,22.75028 55.75056,22.75028 z"
     style="fill:#ffba49;fill-opacity:1;stroke:none;stroke-width:1.61218e-05;stroke-dasharray:none;stroke-opacity:1"
     id="path1-3-3" /></svg>
